<svg id="Layer_1" data-name="Layer 1" xmlns="http://www.w3.org/2000/svg" viewBox="0 0 128 128"><defs><style>.cls-1{fill:#fff;}</style></defs><rect width="128" height="128"/><path class="cls-1" d="M64,85.36A41.24,41.24,0,0,1,28.4,64.81L27.93,64l.47-.81a41.11,41.11,0,0,1,71.2,0l.47.81-.47.81A41.26,41.26,0,0,1,64,85.36ZM31.69,64a37.87,37.87,0,0,0,64.62,0,37.87,37.87,0,0,0-64.62,0Z" transform="translate(0 0)"/><path class="cls-1" d="M64,75.49A11.49,11.49,0,1,1,75.49,64,11.5,11.5,0,0,1,64,75.49Zm0-19.74A8.25,8.25,0,1,0,72.25,64,8.26,8.26,0,0,0,64,55.75Z" transform="translate(0 0)"/></svg>